HIERARCHY
ROOT Hips
{
	OFFSET 0.00000 0.00000 0.00000
	CHANNELS 6 Xposition Yposition Zposition Zrotation Yrotation Xrotation 
	JOINT LHipJoint
	{
		OFFSET 0 0 0
		CHANNELS 3 Zrotation Yrotation Xrotation
		JOINT LeftHip
		{
			OFFSET 1.75344 -1.53157 0.77399
			CHANNELS 3 Zrotation Yrotation Xrotation
			JOINT LeftKnee
			{
				OFFSET 2.25415 -6.19323 0.00000
				CHANNELS 3 Zrotation Yrotation Xrotation
				JOINT LeftAnkle
				{
					OFFSET 2.30342 -6.32861 0.00000
					CHANNELS 3 Zrotation Yrotation Xrotation
					JOINT LeftToe
					{
						OFFSET 0.10958 -0.30108 1.49206
						CHANNELS 3 Zrotation Yrotation Xrotation
						End Site
						{
							OFFSET 0.00000 -0.00000 0.77783
						}
					}
				}
			}
		}
	}
	JOINT RHipJoint
	{
		OFFSET 0 0 0
		CHANNELS 3 Zrotation Yrotation Xrotation
		JOINT RightHip
		{
			OFFSET -1.81912 -1.53156 0.77399
			CHANNELS 3 Zrotation Yrotation Xrotation
			JOINT RightKnee
			{
				OFFSET -2.22882 -6.12365 0.00000
				CHANNELS 3 Zrotation Yrotation Xrotation
				JOINT RightAnkle
				{
					OFFSET -2.21943 -6.09785 0.00000
					CHANNELS 3 Zrotation Yrotation Xrotation
					JOINT RightToe
					{
						OFFSET -0.18931 -0.52012 1.59379
						CHANNELS 3 Zrotation Yrotation Xrotation
						End Site
						{
							OFFSET -0.00000 -0.00000 0.84686
						}
					}
				}
			}
		}
	}
	JOINT lowerback
	{
		OFFSET 0 0 0
		CHANNELS 3 Zrotation Yrotation Xrotation
		JOINT Chest
		{
			OFFSET -0.00200 1.66634 -0.14248
			CHANNELS 3 Zrotation Yrotation Xrotation
			JOINT Chest2
			{
				OFFSET -0.00875 1.64542 0.09514
				CHANNELS 3 Zrotation Yrotation Xrotation
				JOINT lowerneck
				{
					OFFSET 0 0 0
					CHANNELS 3 Zrotation Yrotation Xrotation
					JOINT Neck
					{
						OFFSET 0.02257 1.59605 0.00839
						CHANNELS 3 Zrotation Yrotation Xrotation
						JOINT Head
						{
							OFFSET -0.10214 1.57530 -0.23335
							CHANNELS 3 Zrotation Yrotation Xrotation
							End Site
							{
								OFFSET -0.03588 1.60717 -0.08062
							}
						}
					}
				}
				JOINT LeftCollar
				{
					OFFSET 0 0 0
					CHANNELS 3 Zrotation Yrotation Xrotation
					JOINT LeftShoulder
					{
						OFFSET 2.54983 1.10186 0.40078
CHANNELS 3 Zrotation Xrotation Yrotation
						JOINT LeftElbow
						{
OFFSET 0 -4.288400 0.000000
CHANNELS 3 Zrotation Xrotation Yrotation
							JOINT LeftWrist
							{
OFFSET 0 -3.065520 -0.000000
CHANNELS 3 Zrotation Xrotation Yrotation
								JOINT lhand
								{
									OFFSET 0 0 0
CHANNELS 3 Zrotation Xrotation Yrotation
									JOINT LFingers
									{
OFFSET 0 -0.753040 0.000000
CHANNELS 3 Zrotation Xrotation Yrotation
										End Site
										{
OFFSET 0 -0.607120 0.000000
										}
									}
								}
								JOINT LThumb
								{
OFFSET 0 0.000000 0.000000
CHANNELS 3 Zrotation Xrotation Yrotation
									End Site
									{
OFFSET 0 -0.616390 0.616390
									}
								}
							}
						}
					}
				}
				JOINT RightCollar
				{
					OFFSET 0 0 0
					CHANNELS 3 Zrotation Yrotation Xrotation
					JOINT RightShoulder
					{
						OFFSET -2.60909 1.35448 0.21802
CHANNELS 3 Zrotation Xrotation Yrotation
						JOINT RightElbow
						{
OFFSET 0 -4.521720 -0.000000
CHANNELS 3 Zrotation Xrotation Yrotation
							JOINT RightWrist
							{
OFFSET 0 -2.891400 0.000000
CHANNELS 3 Zrotation Xrotation Yrotation
								JOINT rhand
								{
									OFFSET 0 0 0
CHANNELS 3 Zrotation Xrotation Yrotation
									JOINT RFingers
									{
OFFSET 0 -0.680540 0.000000
CHANNELS 3 Zrotation Xrotation Yrotation
										End Site
										{
OFFSET 0 -0.548670 0.000000
										}
									}
								}
								JOINT RThumb
								{
OFFSET 0 0.000000 0.000000
CHANNELS 3 Zrotation Xrotation Yrotation
									End Site
									{
OFFSET 0 -0.557050 0.557050
									}
								}
							}
						}
					}
				}
			}
		}
	}
}
MOTION
Frames: 4
Frame Time: 0.008333333333333333
8.850261 17.124632 13.351079 -180.793060 -3.999921 -159.906304 0.000000 0.000000 0.000000 -25.267395 -19.036404 4.680274 2.147418 9.166722 26.318182 0.124079 21.002898 -30.517117 9.846944 17.322832 58.975463 0.000000 0.000000 0.000000 25.498649 9.880925 6.621935 -1.315093 -7.263646 20.498847 1.583362 -28.768309 -31.401487 -9.366055 -17.037554 57.347530 1.849643 0.182507 7.625638 -0.047680 0.377312 -4.479868 -1.143025 0.035122 -9.023311 -6.301288 -3.879268 -11.074259 3.372196 -4.550582 4.618118 1.953352 -2.239326 3.774133 0.000000 0.000000 0.000000 150.858966 -34.184732 86.252877 17.466355 -27.468261 4.300341 9.426390 3.020444 46.508210 0.000000 0.000000 0.000000 -7.125000 0.000000 0.000000 -14.107178 -15.709368 -17.859865 0.000000 0.000000 0.000000 -140.976192 -33.697372 -68.082056 -23.796595 -34.948097 -7.589794 6.977120 -0.009727 39.271669 0.000000 0.000000 0.000000 7.125000 0.000000 0.000000 50.346293 61.994206 -23.994970
8.842341 17.307597 13.096206 -180.836593 -4.372973 -159.353998 0.000000 0.000000 0.000000 -24.662399 -18.114865 3.239098 2.176785 9.224930 26.501378 -0.735700 23.255080 -27.553981 10.120640 17.476872 59.890531 0.000000 0.000000 0.000000 25.314493 9.283218 5.431164 -1.327358 -7.296054 20.595432 2.085183 -29.770516 -29.832651 -9.301014 -16.997558 57.125547 1.964938 0.113072 6.567778 0.003452 0.262870 -4.517854 -1.130511 -0.025859 -8.445993 -6.443516 -4.014676 -11.197428 3.726545 -4.732937 5.039094 1.888233 -2.305328 3.593125 0.000000 0.000000 0.000000 149.637027 -32.697706 85.922495 17.004862 -26.863768 4.089757 9.781001 3.821592 45.228886 0.000000 0.000000 0.000000 -7.125000 0.000000 0.000000 -13.754655 -14.542165 -17.197221 0.000000 0.000000 0.000000 -140.476652 -33.060286 -70.632166 -23.490232 -34.620366 -7.414960 6.615795 0.253231 38.752470 0.000000 0.000000 0.000000 7.125000 0.000000 0.000000 49.318130 61.737784 -23.071531
8.837751 17.481149 12.849723 -180.870157 -4.569281 -158.877639 0.000000 0.000000 0.000000 -24.193751 -17.280096 1.816473 2.192229 9.255425 26.597524 -2.595361 28.531122 -20.853794 9.160647 16.901931 56.632489 0.000000 0.000000 0.000000 25.059845 8.796574 4.205866 -1.345694 -7.344168 20.739122 3.090050 -31.777652 -26.278877 -9.064376 -16.848465 56.311762 2.066304 0.151202 6.173677 -0.025489 0.291636 -4.848058 -1.218820 -0.033550 -8.571021 -6.761998 -4.059856 -10.512466 4.246123 -4.827425 5.017306 2.083382 -2.337475 3.463420 0.000000 0.000000 0.000000 148.310066 -31.759560 85.437701 16.640455 -26.381006 3.926430 10.121100 4.077959 44.122308 0.000000 0.000000 0.000000 -7.125000 0.000000 0.000000 -13.437426 -13.535745 -16.611455 0.000000 0.000000 0.000000 -139.221184 -32.423040 -71.707548 -23.500719 -34.631868 -7.420925 5.744228 -0.214803 38.671742 0.000000 0.000000 0.000000 7.125000 0.000000 0.000000 48.417748 61.908667 -22.728116
8.837000 17.646558 12.610399 -180.978681 -4.654623 -158.540362 0.000000 0.000000 0.000000 -23.934894 -16.524023 0.475206 2.197918 9.266660 26.633053 -3.569868 31.443348 -12.280809 7.087043 15.347527 49.105947 0.000000 0.000000 0.000000 24.725599 8.325490 3.074690 -1.364579 -7.393406 20.886335 3.856960 -33.253909 -22.535493 -8.767108 -16.654621 55.279978 1.957718 0.198690 5.993699 0.000956 0.336198 -4.925377 -1.134609 -0.007670 -8.547658 -7.610020 -3.998874 -9.817892 5.212738 -4.741558 4.431697 2.535491 -2.275297 3.214016 0.000000 0.000000 0.000000 146.810440 -30.556995 85.001916 16.388796 -26.044788 3.815212 10.737830 3.689485 43.013608 0.000000 0.000000 0.000000 -7.125000 0.000000 0.000000 -12.987604 -12.570354 -15.867456 0.000000 0.000000 0.000000 -138.000172 -31.376434 -72.401369 -23.719596 -34.866109 -7.545776 4.320629 -0.745097 39.015746 0.000000 0.000000 0.000000 7.125000 0.000000 0.000000 47.579925 62.519766 -22.908483
